# Blender 3.3.1
# www.blender.org
mtllib flare.mtl
o Flare
v -0.500000 -1.000000 0.500000
v -0.800000 1.000000 0.800000
v -0.500000 -1.000000 -0.500000
v -0.800000 1.000000 -0.800000
v 0.500000 -1.000000 0.500000
v 0.800000 1.000000 0.800000
v 0.500000 -1.000000 -0.500000
v 0.800000 1.000000 -0.800000
v -1.000000 0.500000 1.000000
v -1.000000 -0.500000 1.000000
v -1.000000 -0.500000 -1.000000
v -1.000000 0.500000 -1.000000
v 1.000000 -0.300000 -0.620000
v 1.000000 0.300000 -0.620000
v 1.000000 -0.300000 0.620000
v 1.000000 0.300000 0.620000
v -0.800000 1.000000 0.000000
v 0.000000 1.000000 -0.800000
v 0.800000 1.000000 0.000000
v 0.000000 1.000000 0.800000
v 0.000000 1.000000 0.000000
v -0.355638 1.266675 -0.400000
v 0.400000 1.000000 -0.800000
v 0.355638 1.266675 0.400000
v -0.400000 1.000000 0.800000
v -0.355638 1.266675 0.400000
v -0.400000 1.000000 -0.800000
v 0.355638 1.266675 -0.400000
v 0.400000 1.000000 0.800000
v 0.000000 1.266675 0.400000
v 0.000000 1.266675 -0.400000
v 0.400000 1.000000 0.000000
v -0.400000 1.000000 0.000000
v -0.177819 1.266675 -0.400000
v 0.177819 1.266675 -0.400000
v 0.177819 1.266675 0.400000
v -0.177819 1.266675 0.400000
v 1.000000 0.300000 0.380000
v 1.000000 -0.300000 0.380000
v 1.000000 -0.500000 1.000000
v 1.000000 0.500000 1.000000
v 1.000000 0.300000 -0.380000
v 1.000000 -0.300000 -0.380000
v 1.000000 -0.500000 -1.000000
v 1.000000 0.500000 -1.000000
v 1.000000 -0.500000 0.000000
v 1.000000 0.500000 0.000000
v 0.665014 -0.300000 0.620000
v 0.665014 0.300000 0.620000
v 0.665014 0.300000 0.380000
v 0.665014 -0.300000 0.380000
v 0.665014 -0.300000 -0.620000
v 0.665014 0.300000 -0.620000
v 0.665014 -0.300000 -0.380000
v 0.665014 0.300000 -0.380000
vn -0.0000 -0.7071 0.7071
vn 0.7071 -0.7071 -0.0000
vn -0.7071 -0.7071 -0.0000
vn -0.0000 -1.0000 -0.0000
vn -0.0000 0.8320 0.5547
vn -0.0000 -0.7071 -0.7071
vn 0.9285 0.3714 -0.0000
vn -0.0000 0.3714 -0.9285
vn -0.9285 0.3714 -0.0000
vn -0.0000 -0.0000 1.0000
vn -0.0000 -0.0000 -1.0000
vn -1.0000 -0.0000 -0.0000
vn -0.0000 0.3714 0.9285
vn -0.0000 0.8320 -0.5547
vn 1.0000 -0.0000 -0.0000
vn 0.5146 0.8574 -0.0000
vn -0.5146 0.8574 -0.0000
vn -0.0000 1.0000 -0.0000
vt 0.375000 0.000000
vt 0.375000 1.000000
vt 0.125000 0.750000
vt 0.875000 0.750000
vt 0.625000 1.000000
vt 0.625000 0.000000
vt 0.125000 0.500000
vt 0.375000 0.250000
vt 0.875000 0.500000
vt 0.625000 0.250000
vt 0.375000 0.750000
vt 0.625000 0.750000
vt 0.375000 0.500000
vt 0.625000 0.500000
vt 0.562500 0.000000
vt 0.562500 1.000000
vt 0.437500 1.000000
vt 0.437500 0.000000
vt 0.437500 0.250000
vt 0.562500 0.250000
vt 0.462500 0.525000
vt 0.537500 0.525000
vt 0.462500 0.725000
vt 0.537500 0.725000
vt 0.875000 0.625000
vt 0.625000 0.125000
vt 0.750000 0.500000
vt 0.625000 0.375000
vt 0.625000 0.625000
vt 0.750000 0.750000
vt 0.625000 0.875000
vt 0.750000 0.625000
vt 0.875000 0.562500
vt 0.625000 0.187500
vt 0.687500 0.500000
vt 0.625000 0.437500
vt 0.625000 0.687500
vt 0.812500 0.750000
vt 0.625000 0.937500
vt 0.875000 0.687500
vt 0.625000 0.062500
vt 0.812500 0.500000
vt 0.625000 0.312500
vt 0.625000 0.562500
vt 0.687500 0.750000
vt 0.625000 0.812500
vt 0.750000 0.687500
vt 0.750000 0.562500
vt 0.687500 0.625000
vt 0.812500 0.625000
vt 0.812500 0.562500
vt 0.687500 0.562500
vt 0.687500 0.687500
vt 0.812500 0.687500
vt 0.537500 0.650000
vt 0.462500 0.650000
vt 0.437500 0.750000
vt 0.562500 0.750000
vt 0.537500 0.600000
vt 0.462500 0.600000
vt 0.437500 0.500000
vt 0.562500 0.500000
vt 0.437500 0.625000
vt 0.562500 0.625000
vt 0.462500 0.725000
vt 0.537500 0.725000
vt 0.537500 0.650000
vt 0.462500 0.650000
vt 0.462500 0.525000
vt 0.537500 0.525000
vt 0.462500 0.600000
vt 0.537500 0.600000
s 0
f 40/57/1 1/2/1 5/11/1
f 46/63/2 40/57/2 5/11/2
f 10/18/3 3/8/3 1/1/3
f 7/13/4 1/3/4 3/7/4
f 37/54/5 26/40/5 2/4/5 25/38/5
f 11/19/6 7/13/6 3/8/6
f 19/29/7 6/12/7 47/64/7
f 23/36/8 8/14/8 45/62/8
f 17/26/9 4/10/9 12/20/9
f 9/16/10 40/57/10 41/58/10
f 16/24/11 15/23/11 48/65/11 49/66/11
f 45/62/11 11/19/11 12/20/11
f 12/20/12 10/18/12 9/15/12
f 25/39/13 2/5/13 9/16/13
f 36/53/5 30/47/5 20/30/5 29/45/5
f 35/52/5 31/48/5 21/32/5 32/49/5
f 34/51/5 22/33/5 17/25/5 33/50/5
f 31/48/5 34/51/5 33/50/5 21/32/5
f 18/27/14 27/42/14 34/51/14 31/48/14
f 27/42/14 4/9/14 22/33/14 34/51/14
f 28/44/5 35/52/5 32/49/5 19/29/5
f 8/14/14 23/35/14 35/52/14 28/44/14
f 23/35/14 18/27/14 31/48/14 35/52/14
f 24/37/5 36/53/5 29/45/5 6/12/5
f 19/29/14 32/49/14 36/53/14 24/37/14
f 32/49/14 21/32/14 30/47/14 36/53/14
f 30/47/5 37/54/5 25/38/5 20/30/5
f 21/32/14 33/50/14 37/54/14 30/47/14
f 33/50/14 17/25/14 26/40/14 37/54/14
f 42/59/11 43/60/11 54/71/11 55/72/11
f 15/23/15 16/24/15 41/58/15 40/57/15
f 16/24/15 38/55/15 47/64/15 41/58/15
f 39/56/15 15/23/15 40/57/15 46/63/15
f 38/55/15 39/56/15 46/63/15 47/64/15
f 14/22/15 13/21/15 44/61/15 45/62/15
f 13/21/15 43/60/15 46/63/15 44/61/15
f 42/59/15 14/22/15 45/62/15 47/64/15
f 43/60/15 42/59/15 47/64/15 46/63/15
f 47/64/7 45/62/7 8/14/7
f 8/14/16 28/44/16 19/29/16
f 19/29/16 24/37/16 6/12/16
f 6/12/7 41/58/7 47/64/7
f 47/64/7 8/14/7 19/29/7
f 12/20/9 9/15/9 17/26/9
f 9/15/9 2/6/9 17/26/9
f 2/6/17 26/41/17 17/26/17
f 17/26/17 22/34/17 4/10/17
f 45/62/8 12/20/8 18/28/8
f 12/20/8 4/10/8 27/43/8
f 27/43/8 18/28/8 12/20/8
f 18/28/8 23/36/8 45/62/8
f 9/16/13 41/58/13 20/31/13
f 41/58/13 6/12/13 29/46/13
f 29/46/13 20/31/13 41/58/13
f 20/31/13 25/39/13 9/16/13
f 40/57/1 10/17/1 1/2/1
f 5/11/2 7/13/2 46/63/2
f 7/13/2 44/61/2 46/63/2
f 10/18/3 11/19/3 3/8/3
f 7/13/4 5/11/4 1/3/4
f 11/19/6 44/61/6 7/13/6
f 9/16/10 10/17/10 40/57/10
f 45/62/11 44/61/11 11/19/11
f 12/20/12 11/19/12 10/18/12
f 50/67/15 49/66/15 48/65/15 51/68/15
f 53/70/15 55/72/15 54/71/15 52/69/15
f 43/60/18 13/21/18 52/69/18 54/71/18
f 39/56/10 38/55/10 50/67/10 51/68/10
f 38/55/4 16/24/4 49/66/4 50/67/4
f 14/22/4 42/59/4 55/72/4 53/70/4
f 13/21/10 14/22/10 53/70/10 52/69/10
f 15/23/18 39/56/18 51/68/18 48/65/18
